<svg xmlns="http://www.w3.org/2000/svg" viewBox="0 0 280 280" fill="none" shape-rendering="auto"><metadata xmlns:rdf="http://www.w3.org/1999/02/22-rdf-syntax-ns#" xmlns:xsi="http://www.w3.org/2001/XMLSchema-instance" xmlns:dc="http://purl.org/dc/elements/1.1/" xmlns:dcterms="http://purl.org/dc/terms/"><rdf:RDF><rdf:Description><dc:title>Avataaars</dc:title><dc:creator>Pablo Stanley</dc:creator><dc:source xsi:type="dcterms:URI">https://avataaars.com/</dc:source><dcterms:license xsi:type="dcterms:URI">https://avataaars.com/</dcterms:license><dc:rights>Remix of „Avataaars” (https://avataaars.com/) by „Pablo Stanley”, licensed under „Free for personal and commercial use” (https://avataaars.com/)</dc:rights></rdf:Description></rdf:RDF></metadata><mask id="viewboxMask"><rect width="280" height="280" rx="0" ry="0" x="0" y="0" fill="#fff" /></mask><g mask="url(#viewboxMask)"><g transform="translate(8)"><path d="M132 36a56 56 0 0 0-56 56v6.17A12 12 0 0 0 66 110v14a12 12 0 0 0 10.3 11.88 56.04 56.04 0 0 0 31.7 44.73v18.4h-4a72 72 0 0 0-72 72v9h200v-9a72 72 0 0 0-72-72h-4v-18.39a56.04 56.04 0 0 0 31.7-44.73A12 12 0 0 0 198 124v-14a12 12 0 0 0-10-11.83V92a56 56 0 0 0-56-56Z" fill="#d08b5b"/><path d="M108 180.61v8a55.79 55.79 0 0 0 24 5.39c8.59 0 16.73-1.93 24-5.39v-8a55.79 55.79 0 0 1-24 5.39 55.79 55.79 0 0 1-24-5.39Z" fill="#000" fill-opacity=".1"/><g transform="translate(0 170)"><path d="M108 14.7c-15.52 3.68-27.1 10.83-30.77 19.44A72.02 72.02 0 0 0 32 101v9h200v-9a72.02 72.02 0 0 0-45.23-66.86C183.1 25.53 171.52 18.38 156 14.7V32a24 24 0 1 1-48 0V14.7Z" fill="#a7ffc4"/><path d="M102 63.34a67.1 67.1 0 0 1-7-2.82V110h7V63.34ZM162 63.34a67.04 67.04 0 0 0 7-2.82V98.5a3.5 3.5 0 1 1-7 0V63.34Z" fill="#F4F4F4"/><path d="M187.62 34.49a71.79 71.79 0 0 1 10.83 5.63C197.11 55.62 167.87 68 132 68c30.93 0 56-13.43 56-30 0-1.19-.13-2.36-.38-3.51ZM76.38 34.49a16.48 16.48 0 0 0-.38 3.5c0 16.58 25.07 30 56 30-35.87 0-65.1-12.38-66.45-27.88a71.79 71.79 0 0 1 10.83-5.63Z" fill="#000" fill-opacity=".16"/></g><g transform="translate(78 134)"><path fill-rule="evenodd" clip-rule="evenodd" d="M35.12 15.13a19 19 0 0 0 37.77-.09c.08-.77-.77-2.04-1.85-2.04H37.1C36 13 35 14.18 35.12 15.13Z" fill="#000" fill-opacity=".7"/><path d="M70 13H39a5 5 0 0 0 5 5h21a5 5 0 0 0 5-5Z" fill="#fff"/><path d="M66.7 27.14A10.96 10.96 0 0 0 54 25.2a10.95 10.95 0 0 0-12.7 1.94A18.93 18.93 0 0 0 54 32c4.88 0 9.33-1.84 12.7-4.86Z" fill="#FF4F6D"/></g><g transform="translate(104 122)"><path fill-rule="evenodd" clip-rule="evenodd" d="M16 8c0 4.42 5.37 8 12 8s12-3.58 12-8" fill="#000" fill-opacity=".16"/></g><g transform="translate(76 90)"><path d="M34.5 30.7 29 25.2l-5.5 5.5c-.4.4-1.1.4-1.6 0l-1.6-1.6c-.4-.4-.4-1.1 0-1.6l5.5-5.5-5.5-5.5c-.4-.5-.4-1.2 0-1.6l1.6-1.6c.4-.4 1.1-.4 1.6 0l5.5 5.5 5.5-5.5c.4-.4 1.1-.4 1.6 0l1.6 1.6c.4.4.4 1.1 0 1.6L32.2 22l5.5 5.5c.4.4.4 1.1 0 1.6l-1.6 1.6c-.4.4-1.1.4-1.6 0ZM88.5 30.7 83 25.2l-5.5 5.5c-.4.4-1.1.4-1.6 0l-1.6-1.6c-.4-.4-.4-1.1 0-1.6l5.5-5.5-5.5-5.5c-.4-.5-.4-1.2 0-1.6l1.6-1.6c.4-.4 1.1-.4 1.6 0l5.5 5.5 5.5-5.5c.4-.4 1.1-.4 1.6 0l1.6 1.6c.4.4.4 1.1 0 1.6L86.2 22l5.5 5.5c.4.4.4 1.1 0 1.6l-1.6 1.6c-.4.4-1.1.4-1.6 0Z" fill="#000" fill-opacity=".6"/></g><g transform="translate(76 82)"><path d="M36.37 6.88c-1.97 2.9-5.55 4.64-8.74 5.68-3.94 1.29-18.55 3.38-15.11 11.35.05.12.22.12.27 0 1.15-2.65 17.47-5.12 18.97-5.7 4.45-1.71 8.4-5.5 9.17-10.55.35-2.31-.64-6.05-1.55-7.55-.11-.18-.37-.13-.43.07-.36 1.33-1.41 4.97-2.58 6.7ZM75.63 6.88c1.97 2.9 5.55 4.64 8.74 5.68 3.94 1.29 18.55 3.38 15.11 11.35a.15.15 0 0 1-.27 0c-1.15-2.65-17.47-5.12-18.97-5.7-4.45-1.71-8.4-5.5-9.17-10.55-.35-2.31.64-6.05 1.55-7.55.11-.18.37-.13.43.07.36 1.33 1.41 4.97 2.58 6.7Z" fill-rule="evenodd" clip-rule="evenodd" fill="#000" fill-opacity=".6"/></g><g transform="translate(-1)"><path fill-rule="evenodd" clip-rule="evenodd" d="M218.2 107.16a12.2 12.2 0 0 1-6.25-5.56 9.62 9.62 0 0 1 1.95-.13c2.27-.02 5.15-.04 4.62-2.87-.57-2.98-5.4-2.07-7.28-1.6.58-.36 1.34-.49 2.12-.62 1.49-.25 3-.51 3.31-2.33.53-3.18-3.29-3.08-5.08-2.4-.26-2.12 2-3.89 4.14-5.55 1.25-.97 2.45-1.9 3.08-2.85.13-.2.29-.38.43-.55.47-.53.86-.97.31-2.08-1.16-2.35-3.95.32-5.34 1.66l-.45.43c.88-1.63 3.32-8.4 2.95-10.13-.54-2.52-2.34-2.61-3.78-.56-.62.88-.94 2.65-1.23 4.26-.15.81-.29 1.58-.45 2.16-.87-.65-1.39-.7-1.7-.74-.43-.04-.49-.05-.55-1.45-.04-1.02.8-2.7 1.56-4.16.4-.8.79-1.54.97-2.09.08-.24.2-.51.3-.81.53-1.36 1.24-3.18.65-4.23-1.78-3.15-3.48 1.17-3.94 2.65-.5-2.14.5-3.97 1.53-5.88.6-1.13 1.24-2.3 1.57-3.55.54-2.05 1.97-7.58-.51-8.56-2.48-.98-2.51 2.12-2.53 4.66-.01.93-.02 1.79-.15 2.34l-.03.13c-.37 1.57-.92 3.97-2.1 4.71-.18.11-2.83.34-2.96.2-1.1-1.29.42-3.53 1.74-5.49.76-1.13 1.46-2.17 1.55-2.87.22-1.73-.44-2.82-2.06-2.92-.47-.03-1.1.36-1.61.7-.4.24-.73.45-.89.41-1.07-.23-.36-3.82.17-6.5.2-1.04.38-1.94.42-2.46.15-2-.1-7.17-3.48-4.79l.16-2.06c.15-1.95.3-3.86.57-5.83.05-.37.18-.73.3-1.08.32-.97.63-1.86-.67-2.69-2.16-1.36-3.36 1.5-3.85 3.17-.26.9-.27 1.93-.28 2.95-.04 2.29-.07 4.45-2.87 4.52-3.37.07-2.63-2.42-1.87-4.99.29-1 .59-2 .65-2.88.13-1.74-1.01-6.42-3.26-3.26-.53.73-.64 2.56-.74 4.25-.07 1.19-.14 2.3-.34 2.92-.56-.25-.37-1.4-.17-2.61.2-1.2.41-2.44-.06-2.95-1.5-1.64-2.82-.36-3.94.72-.41.4-.8.79-1.16.97l-.08-1.22c-.06-1.04-.13-2.08-.17-3.12-.03-.72.1-1.7.22-2.75.28-2.15.58-4.58-.34-5.6-2.33-2.59-3.82.43-4.5 2.53-.1.28-.18.57-.25.85-.45 1.56-.83 2.93-2.98 3.15.08-1.1-.28-2.7-.65-4.38-.54-2.43-1.12-5-.39-6.35.27-.5.67-.59 1.07-.68.42-.09.85-.18 1.1-.78.83-1.9-.51-2.71-1.98-2.77-4.17-.18-3.8 3.31-3.46 6.58.22 2.04.42 4-.5 4.9-.55-.5-.54-1.03-.52-1.6.01-.6.03-1.24-.55-1.99-1.22-1.6-3.17-1.46-4.92-.73 0-.3.06-.93.16-1.72.41-3.5 1.2-10.27-3.24-6.1-.82.77-1 1.86-1.18 2.93-.12.7-.23 1.37-.51 1.95-.7 1.45-2.4 3.6-3.34 4.78-.47-1.92.16-4.26.7-6.22l.12-.45c.12-.45.46-1.2.85-2.07.84-1.84 1.9-4.2 1.53-5.17-1.27-3.38-4.63.5-6.52 2.68-.45.51-.8.94-1.05 1.15-1.58 1.4-7.88 6.04-9.9 4.64-.32-.23-.36-.74-.4-1.3-.05-.65-.11-1.38-.62-1.83-.48-.4-2.48-.6-3.06-.54.36-1.5-.34-3.43-2.05-2.9-1.23.36-1.45 1.56-1.67 2.74-.16.88-.33 1.75-.91 2.25-1.5 1.29-3.17.3-4.84-.68-1.15-.68-2.3-1.36-3.4-1.3.07-.32.22-.76.4-1.28.84-2.44 2.22-6.45-1.8-4.87-1.25.49-2.13 3.35-2.45 4.54-.14.55-.24 1.02-.32 1.42-.39 1.82-.5 2.32-3.18 3.03.09-.63.09-1.3.1-1.98 0-1.25 0-2.53.55-3.54.14-.28.4-.63.7-1.03 1.16-1.53 2.81-3.71-.24-4.05-3.78-.4-4.26 4.68-4.59 8.17-.08.9-.16 1.7-.28 2.27-4.12-2.5-6.86.96-9.33 4.07l-.15.19c.45-1.42 1.56-15.56-2.96-11.24-.84.8-.53 1.84-.24 2.87.16.55.32 1.1.29 1.6-.08 1.29-.5 2.43-1 3.62a24.52 24.52 0 0 1-2.97 5.53c-.3.4-.53.73-.71.99-.32.46-.48.7-.69.74-.22.04-.48-.17-1.04-.61a58.7 58.7 0 0 0-.38-.3c-2.43-1.87-3.58-6.62-3.46-9.52 0-.35.05-.76.1-1.19.22-2.24.51-5.2-2.5-4.35-3.01.86-2.05 6.15-1.5 9.2l.21 1.26c.4 2.69.65 5.43.2 8.17-2.3-2.36-3.09.87-3.6 2.97-.16.63-.28 1.16-.42 1.4-.7 1.26-1.84 2.07-2.98 2.86-.46.33-.93.65-1.36 1-.42-1.47.28-2.83.93-4.1.59-1.15 1.14-2.23.84-3.27-1.1-3.87-4.1.93-5.11 2.55l-.2.32c-.24.37-.69 1.42-1.19 2.59-.8 1.86-1.73 4.04-2.17 4.34-1.03.69-7.6-2.53-8.28-3.14-.55-.51-.76-1.45-.97-2.38-.25-1.11-.5-2.22-1.34-2.61-4.72-2.2-1.93 5.73-1 7.37a24.3 24.3 0 0 1 2.94 14.5 6.4 6.4 0 0 1-2.46-2.07 6.28 6.28 0 0 1-.87-2.53c-.19-.96-.36-1.88-.94-2.46-3.3-3.28-3.68 2.88-3.4 4.8.32 2.35 1.2 3.66 2.2 5.13.51.76 1.06 1.57 1.57 2.6.94 1.9.37 4.07-.2 6.23-.25.97-.51 1.95-.63 2.9-3.43-3.3-18.2-.55-14.4 4.5 1.17 1.55 2.47.44 3.8-.7.93-.8 1.87-1.6 2.8-1.55 4.09.22 6.24 5.3 5.97 8.84-.5-1.9-2.42-3.76-3.75-1.44-.8 1.4.32 3.67 1.1 5.25l.28.57c-.9-.44-5.37-2.52-6.25-2.16-3.44 1.41 1.3 4.15 2.54 4.7 4.22 1.87 6.89 3.92 8.2 8.99-1.43-.46-1.85-1.05-2.3-1.7-.3-.43-.62-.88-1.25-1.34-.95-.7-1.4-.7-1.96-.73-.31 0-.66-.02-1.13-.14l-.07-.02c-2.36-.6-5.4-1.4-8.04-.3-1.97.82-5.3 3.31-5.9 5.65-.77 2.87.84 3.6 2.9 2.14a9.77 9.77 0 0 0 2.08-2.23c1.09-1.45 2.12-2.82 4.5-2.73a6.6 6.6 0 0 1 4.64 2.33c.44.53.8 1.19 1.14 1.85.3.57.6 1.15.98 1.64.28.38.75.82 1.23 1.27.73.68 1.49 1.4 1.73 1.99 1.3 3.3-.87 6.27-2.63 8.68l-.46.63c-.42-.55-3.47-1.76-4.1-1.88-2.95-.56-4.05.8-2.2 3.52.3.45.8.77 1.28 1.08.43.28.85.55 1.15.91.37.45.66 1.03.94 1.61.27.54.54 1.08.88 1.53.92 1.24 2 2.08 3.1 2.94.55.44 1.12.88 1.68 1.39-.33.21-.46.02-.6-.17-.12-.17-.25-.34-.5-.24-.2.07-.47.04-.75 0-.3-.04-.61-.08-.87 0-.47.16-.64.68-.79 1.15-.12.36-.23.7-.46.79-1.91.76-3.84-.58-5.7-1.86-1.34-.94-2.64-1.85-3.89-1.92-1.61-.08-2.97 1-2.2 3.03.44 1.13 2.04 1.85 3.25 2.4l.79.36c3.24 1.65 6.48 2.87 9.95 1.6a14.73 14.73 0 0 0 9.67 3.69c-2.01 1-4 2.23-4.7 4.72a12.3 12.3 0 0 1-.9-1.17c-1.41-1.95-3.52-4.88-4.74-1.3-1.04 3.1 3.73 6.87 5.93 8.27-2.56.75-4.68.9-7.28.6-.3-.03-.66-.14-1.04-.25-1.4-.43-3.06-.92-2.2 2 1.13 3.83 7.59 2.37 10.13 1.62-1.78 1.5-9.56 11.7-2.8 9.39.95-.33 1.53-1.34 2.13-2.4.77-1.35 1.58-2.77 3.28-2.98 2.48-.3 3.38 1.37 4.41 3.28.43.79.88 1.62 1.47 2.37.39.49 1.3 1.21 2.28 1.98 1.58 1.24 3.3 2.6 3.17 3.28-.1.46-.72.82-1.4 1.21-.77.44-1.6.92-1.9 1.62-.62 1.55-.34 2.75.54 4.08 1.17 1.78 3.09 2.4 4.92 3.01.58.2 1.14.38 1.67.6 3.17 1.29 4.31 2.86 5.73 6.21-2.5.12-9.62 7.36-5.26 8.65 1.12.33 1.35-.25 1.6-.91.12-.3.24-.6.45-.86l.55-1.02.27-.52c.46-1.2.97-1.27 1.52-.22.07-.02.47.08.9.18.42.1.88.22 1.05.23 1.19.07 2.1-.53 3.03-1.15.4-.26.8-.53 1.24-.75.31-.15.62-.25.93-.35.68-.22 1.33-.42 1.86-1.23-.09.13.56-2.51.57-2.54.13-.31.38-.45.63-.6.25-.13.51-.28.68-.63a55.8 55.8 0 0 1-15.5-34.47A12 12 0 0 1 69 123v-13a12 12 0 0 1 7.5-11.13c.53.38 1.27 0 1.5-.84-.46-1.5 3.3-27.85 13-34.87 3.62-2.44 23-2.62 42.31-2.6 19.1 0 38.11.18 41.69 2.6 9.7 7.02 13.46 33.37 13 34.87.23.84.97 1.22 1.5.84A12 12 0 0 1 197 110v13a12 12 0 0 1-8.17 11.38 55.7 55.7 0 0 1-11.07 29.28c.2.81.4 1.63.55 2.5.18 1.1.23 2.14.28 3.15.1 2.04.19 3.94 1.37 5.95.19.33.42.6.66.86.33.38.66.76.86 1.28.16.44.2 1.05.25 1.68.1 1.4.2 2.92 1.7 2.92 3.1 0 1.37-5.97.6-7.38-.3-.54-.57-1-.82-1.41-1.03-1.74-1.63-2.74-1.57-5.64 1.75 1.16 7.53 3.38 9.45 2.32 3.5-1.94-2.69-3.9-5.83-4.89a11.7 11.7 0 0 1-1.6-.56c.63-.63 1.3-1.14 1.97-1.66 1.13-.86 2.25-1.72 3.22-3.1.25-.34.49-.72.73-1.11 1.01-1.6 2.1-3.3 3.82-3.38.4-.02 1.04.3 1.77.65 1.46.7 3.24 1.56 3.94.21.74-1.4-.26-1.89-1.15-2.33-.29-.14-.57-.28-.77-.44-.55-.45-.95-.57-1.2-.65-.45-.13-.5-.14-.27-1.49 1.1 1.17 2.8.43 3.25-1.01.3-.92-.16-1.46-.56-1.95-.28-.34-.55-.66-.54-1.07 0 .4.84-5.11.7-4.93.85-1.12 3.81-.8 5.34-.63h.07c2.13.24 2.17.31 3.03 2.02l.22.42c.88 1.72 3.2 5.18 3.7.64.13-1.08-.86-3.4-1.44-4.34a5.12 5.12 0 0 0-1.6-1.33c-.58-.37-1.12-.71-1.31-1.1-.48-.94.08-2.47.68-4.12.59-1.61 1.22-3.33.96-4.73.3.12.73.7 1.23 1.38 1.29 1.75 3 4.07 3.96.22.33-1.27-1.01-3.25-2.27-5.12-1.48-2.2-2.86-4.25-1.24-4.76 2.29-.73 4.61 2.22 5.25 4.04.2.56.27 1.37.35 2.22.12 1.2.24 2.48.72 3.14 3.03 4.2 3.4-2.75 3.16-4.58-.56-4.02-1.99-6.98-5.63-8.5 1.14-1.42 0-2.58-.91-3.53l-.36-.37c.55-.6 2.22-.75 4-.91 3.13-.28 6.62-.6 5.2-3.42-.39-.78-1.53-1.1-2.5-1.36-.36-.1-.7-.19-.96-.3ZM59.5 138.8c0-.14-.13-.09-.36.1l.35-.1Z" fill="#724133"/></g><g transform="translate(49 72)"></g><g transform="translate(62 42)"></g></g></g></svg>