<svg xmlns="http://www.w3.org/2000/svg" viewBox="0 0 280 280" fill="none" shape-rendering="auto"><metadata xmlns:rdf="http://www.w3.org/1999/02/22-rdf-syntax-ns#" xmlns:xsi="http://www.w3.org/2001/XMLSchema-instance" xmlns:dc="http://purl.org/dc/elements/1.1/" xmlns:dcterms="http://purl.org/dc/terms/"><rdf:RDF><rdf:Description><dc:title>Avataaars</dc:title><dc:creator>Pablo Stanley</dc:creator><dc:source xsi:type="dcterms:URI">https://avataaars.com/</dc:source><dcterms:license xsi:type="dcterms:URI">https://avataaars.com/</dcterms:license><dc:rights>Remix of „Avataaars” (https://avataaars.com/) by „Pablo Stanley”, licensed under „Free for personal and commercial use” (https://avataaars.com/)</dc:rights></rdf:Description></rdf:RDF></metadata><mask id="viewboxMask"><rect width="280" height="280" rx="0" ry="0" x="0" y="0" fill="#fff" /></mask><g mask="url(#viewboxMask)"><g transform="translate(8)"><path d="M132 36a56 56 0 0 0-56 56v6.17A12 12 0 0 0 66 110v14a12 12 0 0 0 10.3 11.88 56.04 56.04 0 0 0 31.7 44.73v18.4h-4a72 72 0 0 0-72 72v9h200v-9a72 72 0 0 0-72-72h-4v-18.39a56.04 56.04 0 0 0 31.7-44.73A12 12 0 0 0 198 124v-14a12 12 0 0 0-10-11.83V92a56 56 0 0 0-56-56Z" fill="#f8d25c"/><path d="M108 180.61v8a55.79 55.79 0 0 0 24 5.39c8.59 0 16.73-1.93 24-5.39v-8a55.79 55.79 0 0 1-24 5.39 55.79 55.79 0 0 1-24-5.39Z" fill="#000" fill-opacity=".1"/><g transform="translate(0 170)"><path d="M132.5 54C151 54 166 44.37 166 32.5c0-1.1-.13-2.18-.38-3.23A72 72 0 0 1 232 101.05V110H32v-8.95A72 72 0 0 1 99.4 29.2a14.1 14.1 0 0 0-.4 3.3C99 44.37 114 54 132.5 54Z" fill="#262e33"/><g transform="translate(77 58)"><path d="M10.27 30.13c3.28-.56 5.73-3.55 5.18-6.79-.46-2.72-1.74-.34-2.97.86-1.34 1.3-2.45 2.57-4.54 2.05-3.6-.9-4.86-5.4-3.84-8.48a5.94 5.94 0 0 1 3.48-3.7c1.85-.74 3.2.1 4.75 1.1.28.19 1.73 1.37 2 1.25.45-.21.1-2.43.04-2.73a4.8 4.8 0 0 0-2.62-3.24c-3.34-1.64-7.52.48-9.64 3.05-4.88 5.9-.91 18.17 8.17 16.62ZM20.28 11.04Zm-1.6 12.86c.51 3.48 2.99 6.5 6.96 6.36 4.28-.16 6.06-4.1 7-7.49.97-3.4 2.06-7.68.67-11.09-.42-1.03-.68-2.38-1.71-1.53-1.26 1.03-1.41 4.04-1.52 5.44-.2 2.65-.78 9.97-4.1 10.95-4.18 1.22-4.05-5.85-4-7.98.03-1.9.24-3.73-.35-5.58-.31-.99-.59-2.44-1.53-1.64-1.29 1.11-1.45 3.83-1.54 5.33-.14 2.4-.21 4.84.13 7.23ZM37.78 26.75c.2.4.63 1.4 1.02 1.67.95.67-.05.71.8-.05.82-.73 1.13-2.72 1.26-3.67.38-2.96-.12-6.11-.09-9.1 1.02 2.22 1.58 4.59 2.39 6.88.55 1.58 1.4 4.8 3.65 4.75 2.45-.05 2.58-3.14 2.9-4.82.47-2.37.97-4.72 1.68-7.04.1 3.91-1.43 11 2.1 13.92.02.02 1.44-4.15 1.47-4.4.23-1.7.09-3.45.11-5.15.05-3.6.72-8-.3-11.5-.33-1.14-.97-2.27-2.4-2.24-1.83.04-2.24 1.99-2.7 3.3a114.02 114.02 0 0 0-3.36 10.94c-.55-1.68-5.34-16.42-8.8-10.9-.55.89-.3 2.22-.33 3.2-.04 1.87-.15 3.75-.2 5.63-.06 2.84-.4 5.9.81 8.58ZM62.02 13.71c.72-.14 5.74-1.73 5.52-.14-.22 1.68-4.63 3.31-5.81 3.88 0-1.2-.24-2.44-.65-3.57l.94-.17Zm5.72-.64c-.03-.04 0 0 0 0Zm.12 8.34c2.27 1.22 1.29 3.42-.43 4.6-.65.47-6.53 1.82-6.51 1.68.18-1.69-.26-5.01 1-6.01 1.3-1.04 4.5-.81 5.94-.26Zm.06-8s.01.03 0 0Zm-9.98 16.85c.23.55.86 1.91 1.57 1.94.86.04.8-1.04.93-1.7 3.44 1.72 8.5-.05 10.9-3.03a6.15 6.15 0 0 0-2.57-9.75c2.1-1.69 4.02-5.4 1.25-7.49a7.68 7.68 0 0 0-8.12-.3c-2.74 1.72-3.85 5.83-4.1 9-.25 3.39-1.15 8.13.14 11.33ZM76.05 21.87c.07 2.07-.15 4.29.33 6.3.17.72.44 1.52.76 2.17.61 1.21.31 1.05 1.03.36 2.18-2.08 1.21-8.58 1.16-11.25-.04-2.08.06-4.28-.51-6.28-.16-.56-1.12-3.35-1.66-3.29-.81.1-1.37 3.93-1.42 4.7-.15 2.4.23 4.9.31 7.3ZM94.75 22.43c-1.58-.14-3.62.07-5.12.56.7-1.92 1.48-4.06 2.24-5.8.47-1.08.97-2.16 1.5-3.23 1.27 2.68 1.98 5.82 2.82 8.66-.47-.08-.96-.15-1.44-.19Zm5.44.72c-.73-2.77-1.58-5.53-2.43-8.27-.54-1.75-1.13-3.92-2.6-5.17-4.16-3.56-6.52 5.85-7.55 8.23-.98 2.3-2.21 4.63-2.85 7.05a9.48 9.48 0 0 0-.24 3.64c.2 1.52 0 1.74 1.3.91 1-.63 1.4-1.79 2.22-2.56.14-.14.22-.68.4-.76.18-.1 1.5.25 1.8.27 2.18.16 4.72-.2 6.72-1.04.2.84 1.63 5.96 2.98 5.77.6-.08.96-3.06 1-3.54.08-1.55-.36-3.05-.75-4.54ZM109.3 9.43c-.26-1.2-.81-3.29-1.84-2.11-1.4 1.6-1.1 5.17-1.11 7.18-.02 1.45-1.55 12.06.56 11.88-.1 0 .84-1.67.98-1.92a12.37 12.37 0 0 0 1.32-4.72c.37-3.24.79-7.12.1-10.3ZM108.16 30.3c-2.23-2.73-6.3.66-5.04 3.38 1.73 3.7 7.33-.57 5.04-3.38ZM94.9 34.54c-2.9-.73-6.3-.24-9.25-.15-3.08.1-6.16.27-9.24.36-6.57.2-13.13.1-19.7.04-12.44-.1-24.92.69-37.37.17-2.67-.12-5.54-.72-8.2-.21-.72.14-3 .54-3.32 1.26-.34.76 1.4 1.56 2.33 1.96 2.42 1.04 5.33.86 7.9.96 2.93.12 5.89.06 8.82-.01 12.07-.3 24.09-1.34 36.18-1.17 6.97.1 13.93.04 20.9 0 3.33-.01 7 .53 10.28-.06.55-.1 3.76-.85 3.8-1.83.03-.46-2.8-1.23-3.12-1.32Z" fill-rule="evenodd" clip-rule="evenodd" fill="#fff"/></g></g><g transform="translate(78 134)"><path fill-rule="evenodd" clip-rule="evenodd" d="M35.12 29.87a19 19 0 0 1 37.77.09c.08.77-.77 2.04-1.85 2.04H37.1C36 32 35 30.82 35.12 29.87Z" fill="#000" fill-opacity=".7"/><path d="M69.59 32H38.4a11 11 0 0 1 15.6-6.8A11 11 0 0 1 69.59 32Z" fill="#FF4F6D"/><path d="M66.57 17.75A5 5 0 0 1 65 18H44c-.8 0-1.57-.2-2.24-.53A18.92 18.92 0 0 1 54 13c4.82 0 9.22 1.8 12.57 4.75Z" fill="#fff"/></g><g transform="translate(104 122)"><path fill-rule="evenodd" clip-rule="evenodd" d="M16 8c0 4.42 5.37 8 12 8s12-3.58 12-8" fill="#000" fill-opacity=".16"/></g><g transform="translate(76 90)"><path d="M44 22a14 14 0 1 1-28 0 14 14 0 0 1 28 0ZM96 22a14 14 0 1 1-28 0 14 14 0 0 1 28 0Z" fill="#fff"/><path d="M36 22a6 6 0 1 1-12 0 6 6 0 0 1 12 0ZM88 22a6 6 0 1 1-12 0 6 6 0 0 1 12 0Z" fill="#000" fill-opacity=".7"/></g><g transform="translate(76 82)"><path d="M15.6 14.16c4.49-6.32 14-9.5 23.75-6.36a2 2 0 1 0 1.23-3.81c-11.41-3.68-22.74.1-28.25 7.85a2 2 0 1 0 3.26 2.32ZM96.38 21.16c-3.92-5.51-14.65-8.6-23.9-6.33a2 2 0 0 1-.95-3.88c10.74-2.64 23.17.94 28.1 7.9a2 2 0 1 1-3.25 2.3Z" fill="#000" fill-opacity=".6"/></g><g transform="translate(-1)"><path fill-rule="evenodd" clip-rule="evenodd" d="M218.2 107.16a12.2 12.2 0 0 1-6.25-5.56 9.62 9.62 0 0 1 1.95-.13c2.27-.02 5.15-.04 4.62-2.87-.57-2.98-5.4-2.07-7.28-1.6.58-.36 1.34-.49 2.12-.62 1.49-.25 3-.51 3.31-2.33.53-3.18-3.29-3.08-5.08-2.4-.26-2.12 2-3.89 4.14-5.55 1.25-.97 2.45-1.9 3.08-2.85.13-.2.29-.38.43-.55.47-.53.86-.97.31-2.08-1.16-2.35-3.95.32-5.34 1.66l-.45.43c.88-1.63 3.32-8.4 2.95-10.13-.54-2.52-2.34-2.61-3.78-.56-.62.88-.94 2.65-1.23 4.26-.15.81-.29 1.58-.45 2.16-.87-.65-1.39-.7-1.7-.74-.43-.04-.49-.05-.55-1.45-.04-1.02.8-2.7 1.56-4.16.4-.8.79-1.54.97-2.09.08-.24.2-.51.3-.81.53-1.36 1.24-3.18.65-4.23-1.78-3.15-3.48 1.17-3.94 2.65-.5-2.14.5-3.97 1.53-5.88.6-1.13 1.24-2.3 1.57-3.55.54-2.05 1.97-7.58-.51-8.56-2.48-.98-2.51 2.12-2.53 4.66-.01.93-.02 1.79-.15 2.34l-.03.13c-.37 1.57-.92 3.97-2.1 4.71-.18.11-2.83.34-2.96.2-1.1-1.29.42-3.53 1.74-5.49.76-1.13 1.46-2.17 1.55-2.87.22-1.73-.44-2.82-2.06-2.92-.47-.03-1.1.36-1.61.7-.4.24-.73.45-.89.41-1.07-.23-.36-3.82.17-6.5.2-1.04.38-1.94.42-2.46.15-2-.1-7.17-3.48-4.79l.16-2.06c.15-1.95.3-3.86.57-5.83.05-.37.18-.73.3-1.08.32-.97.63-1.86-.67-2.69-2.16-1.36-3.36 1.5-3.85 3.17-.26.9-.27 1.93-.28 2.95-.04 2.29-.07 4.45-2.87 4.52-3.37.07-2.63-2.42-1.87-4.99.29-1 .59-2 .65-2.88.13-1.74-1.01-6.42-3.26-3.26-.53.73-.64 2.56-.74 4.25-.07 1.19-.14 2.3-.34 2.92-.56-.25-.37-1.4-.17-2.61.2-1.2.41-2.44-.06-2.95-1.5-1.64-2.82-.36-3.94.72-.41.4-.8.79-1.16.97l-.08-1.22c-.06-1.04-.13-2.08-.17-3.12-.03-.72.1-1.7.22-2.75.28-2.15.58-4.58-.34-5.6-2.33-2.59-3.82.43-4.5 2.53-.1.28-.18.57-.25.85-.45 1.56-.83 2.93-2.98 3.15.08-1.1-.28-2.7-.65-4.38-.54-2.43-1.12-5-.39-6.35.27-.5.67-.59 1.07-.68.42-.09.85-.18 1.1-.78.83-1.9-.51-2.71-1.98-2.77-4.17-.18-3.8 3.31-3.46 6.58.22 2.04.42 4-.5 4.9-.55-.5-.54-1.03-.52-1.6.01-.6.03-1.24-.55-1.99-1.22-1.6-3.17-1.46-4.92-.73 0-.3.06-.93.16-1.72.41-3.5 1.2-10.27-3.24-6.1-.82.77-1 1.86-1.18 2.93-.12.7-.23 1.37-.51 1.95-.7 1.45-2.4 3.6-3.34 4.78-.47-1.92.16-4.26.7-6.22l.12-.45c.12-.45.46-1.2.85-2.07.84-1.84 1.9-4.2 1.53-5.17-1.27-3.38-4.63.5-6.52 2.68-.45.51-.8.94-1.05 1.15-1.58 1.4-7.88 6.04-9.9 4.64-.32-.23-.36-.74-.4-1.3-.05-.65-.11-1.38-.62-1.83-.48-.4-2.48-.6-3.06-.54.36-1.5-.34-3.43-2.05-2.9-1.23.36-1.45 1.56-1.67 2.74-.16.88-.33 1.75-.91 2.25-1.5 1.29-3.17.3-4.84-.68-1.15-.68-2.3-1.36-3.4-1.3.07-.32.22-.76.4-1.28.84-2.44 2.22-6.45-1.8-4.87-1.25.49-2.13 3.35-2.45 4.54-.14.55-.24 1.02-.32 1.42-.39 1.82-.5 2.32-3.18 3.03.09-.63.09-1.3.1-1.98 0-1.25 0-2.53.55-3.54.14-.28.4-.63.7-1.03 1.16-1.53 2.81-3.71-.24-4.05-3.78-.4-4.26 4.68-4.59 8.17-.08.9-.16 1.7-.28 2.27-4.12-2.5-6.86.96-9.33 4.07l-.15.19c.45-1.42 1.56-15.56-2.96-11.24-.84.8-.53 1.84-.24 2.87.16.55.32 1.1.29 1.6-.08 1.29-.5 2.43-1 3.62a24.52 24.52 0 0 1-2.97 5.53c-.3.4-.53.73-.71.99-.32.46-.48.7-.69.74-.22.04-.48-.17-1.04-.61a58.7 58.7 0 0 0-.38-.3c-2.43-1.87-3.58-6.62-3.46-9.52 0-.35.05-.76.1-1.19.22-2.24.51-5.2-2.5-4.35-3.01.86-2.05 6.15-1.5 9.2l.21 1.26c.4 2.69.65 5.43.2 8.17-2.3-2.36-3.09.87-3.6 2.97-.16.63-.28 1.16-.42 1.4-.7 1.26-1.84 2.07-2.98 2.86-.46.33-.93.65-1.36 1-.42-1.47.28-2.83.93-4.1.59-1.15 1.14-2.23.84-3.27-1.1-3.87-4.1.93-5.11 2.55l-.2.32c-.24.37-.69 1.42-1.19 2.59-.8 1.86-1.73 4.04-2.17 4.34-1.03.69-7.6-2.53-8.28-3.14-.55-.51-.76-1.45-.97-2.38-.25-1.11-.5-2.22-1.34-2.61-4.72-2.2-1.93 5.73-1 7.37a24.3 24.3 0 0 1 2.94 14.5 6.4 6.4 0 0 1-2.46-2.07 6.28 6.28 0 0 1-.87-2.53c-.19-.96-.36-1.88-.94-2.46-3.3-3.28-3.68 2.88-3.4 4.8.32 2.35 1.2 3.66 2.2 5.13.51.76 1.06 1.57 1.57 2.6.94 1.9.37 4.07-.2 6.23-.25.97-.51 1.95-.63 2.9-3.43-3.3-18.2-.55-14.4 4.5 1.17 1.55 2.47.44 3.8-.7.93-.8 1.87-1.6 2.8-1.55 4.09.22 6.24 5.3 5.97 8.84-.5-1.9-2.42-3.76-3.75-1.44-.8 1.4.32 3.67 1.1 5.25l.28.57c-.9-.44-5.37-2.52-6.25-2.16-3.44 1.41 1.3 4.15 2.54 4.7 4.22 1.87 6.89 3.92 8.2 8.99-1.43-.46-1.85-1.05-2.3-1.7-.3-.43-.62-.88-1.25-1.34-.95-.7-1.4-.7-1.96-.73-.31 0-.66-.02-1.13-.14l-.07-.02c-2.36-.6-5.4-1.4-8.04-.3-1.97.82-5.3 3.31-5.9 5.65-.77 2.87.84 3.6 2.9 2.14a9.77 9.77 0 0 0 2.08-2.23c1.09-1.45 2.12-2.82 4.5-2.73a6.6 6.6 0 0 1 4.64 2.33c.44.53.8 1.19 1.14 1.85.3.57.6 1.15.98 1.64.28.38.75.82 1.23 1.27.73.68 1.49 1.4 1.73 1.99 1.3 3.3-.87 6.27-2.63 8.68l-.46.63c-.42-.55-3.47-1.76-4.1-1.88-2.95-.56-4.05.8-2.2 3.52.3.45.8.77 1.28 1.08.43.28.85.55 1.15.91.37.45.66 1.03.94 1.61.27.54.54 1.08.88 1.53.92 1.24 2 2.08 3.1 2.94.55.44 1.12.88 1.68 1.39-.33.21-.46.02-.6-.17-.12-.17-.25-.34-.5-.24-.2.07-.47.04-.75 0-.3-.04-.61-.08-.87 0-.47.16-.64.68-.79 1.15-.12.36-.23.7-.46.79-1.91.76-3.84-.58-5.7-1.86-1.34-.94-2.64-1.85-3.89-1.92-1.61-.08-2.97 1-2.2 3.03.44 1.13 2.04 1.85 3.25 2.4l.79.36c3.24 1.65 6.48 2.87 9.95 1.6a14.73 14.73 0 0 0 9.67 3.69c-2.01 1-4 2.23-4.7 4.72a12.3 12.3 0 0 1-.9-1.17c-1.41-1.95-3.52-4.88-4.74-1.3-1.04 3.1 3.73 6.87 5.93 8.27-2.56.75-4.68.9-7.28.6-.3-.03-.66-.14-1.04-.25-1.4-.43-3.06-.92-2.2 2 1.13 3.83 7.59 2.37 10.13 1.62-1.78 1.5-9.56 11.7-2.8 9.39.95-.33 1.53-1.34 2.13-2.4.77-1.35 1.58-2.77 3.28-2.98 2.48-.3 3.38 1.37 4.41 3.28.43.79.88 1.62 1.47 2.37.39.49 1.3 1.21 2.28 1.98 1.58 1.24 3.3 2.6 3.17 3.28-.1.46-.72.82-1.4 1.21-.77.44-1.6.92-1.9 1.62-.62 1.55-.34 2.75.54 4.08 1.17 1.78 3.09 2.4 4.92 3.01.58.2 1.14.38 1.67.6 3.17 1.29 4.31 2.86 5.73 6.21-2.5.12-9.62 7.36-5.26 8.65 1.12.33 1.35-.25 1.6-.91.12-.3.24-.6.45-.86l.55-1.02.27-.52c.46-1.2.97-1.27 1.52-.22.07-.02.47.08.9.18.42.1.88.22 1.05.23 1.19.07 2.1-.53 3.03-1.15.4-.26.8-.53 1.24-.75.31-.15.62-.25.93-.35.68-.22 1.33-.42 1.86-1.23-.09.13.56-2.51.57-2.54.13-.31.38-.45.63-.6.25-.13.51-.28.68-.63a55.8 55.8 0 0 1-15.5-34.47A12 12 0 0 1 69 123v-13a12 12 0 0 1 7.5-11.13c.53.38 1.27 0 1.5-.84-.46-1.5 3.3-27.85 13-34.87 3.62-2.44 23-2.62 42.31-2.6 19.1 0 38.11.18 41.69 2.6 9.7 7.02 13.46 33.37 13 34.87.23.84.97 1.22 1.5.84A12 12 0 0 1 197 110v13a12 12 0 0 1-8.17 11.38 55.7 55.7 0 0 1-11.07 29.28c.2.81.4 1.63.55 2.5.18 1.1.23 2.14.28 3.15.1 2.04.19 3.94 1.37 5.95.19.33.42.6.66.86.33.38.66.76.86 1.28.16.44.2 1.05.25 1.68.1 1.4.2 2.92 1.7 2.92 3.1 0 1.37-5.97.6-7.38-.3-.54-.57-1-.82-1.41-1.03-1.74-1.63-2.74-1.57-5.64 1.75 1.16 7.53 3.38 9.45 2.32 3.5-1.94-2.69-3.9-5.83-4.89a11.7 11.7 0 0 1-1.6-.56c.63-.63 1.3-1.14 1.97-1.66 1.13-.86 2.25-1.72 3.22-3.1.25-.34.49-.72.73-1.11 1.01-1.6 2.1-3.3 3.82-3.38.4-.02 1.04.3 1.77.65 1.46.7 3.24 1.56 3.94.21.74-1.4-.26-1.89-1.15-2.33-.29-.14-.57-.28-.77-.44-.55-.45-.95-.57-1.2-.65-.45-.13-.5-.14-.27-1.49 1.1 1.17 2.8.43 3.25-1.01.3-.92-.16-1.46-.56-1.95-.28-.34-.55-.66-.54-1.07 0 .4.84-5.11.7-4.93.85-1.12 3.81-.8 5.34-.63h.07c2.13.24 2.17.31 3.03 2.02l.22.42c.88 1.72 3.2 5.18 3.7.64.13-1.08-.86-3.4-1.44-4.34a5.12 5.12 0 0 0-1.6-1.33c-.58-.37-1.12-.71-1.31-1.1-.48-.94.08-2.47.68-4.12.59-1.61 1.22-3.33.96-4.73.3.12.73.7 1.23 1.38 1.29 1.75 3 4.07 3.96.22.33-1.27-1.01-3.25-2.27-5.12-1.48-2.2-2.86-4.25-1.24-4.76 2.29-.73 4.61 2.22 5.25 4.04.2.56.27 1.37.35 2.22.12 1.2.24 2.48.72 3.14 3.03 4.2 3.4-2.75 3.16-4.58-.56-4.02-1.99-6.98-5.63-8.5 1.14-1.42 0-2.58-.91-3.53l-.36-.37c.55-.6 2.22-.75 4-.91 3.13-.28 6.62-.6 5.2-3.42-.39-.78-1.53-1.1-2.5-1.36-.36-.1-.7-.19-.96-.3ZM59.5 138.8c0-.14-.13-.09-.36.1l.35-.1Z" fill="#2c1b18"/></g><g transform="translate(49 72)"></g><g transform="translate(62 42)"></g></g></g></svg>