<svg xmlns="http://www.w3.org/2000/svg" viewBox="0 0 280 280" fill="none" shape-rendering="auto"><metadata xmlns:rdf="http://www.w3.org/1999/02/22-rdf-syntax-ns#" xmlns:xsi="http://www.w3.org/2001/XMLSchema-instance" xmlns:dc="http://purl.org/dc/elements/1.1/" xmlns:dcterms="http://purl.org/dc/terms/"><rdf:RDF><rdf:Description><dc:title>Avataaars</dc:title><dc:creator>Pablo Stanley</dc:creator><dc:source xsi:type="dcterms:URI">https://avataaars.com/</dc:source><dcterms:license xsi:type="dcterms:URI">https://avataaars.com/</dcterms:license><dc:rights>Remix of „Avataaars” (https://avataaars.com/) by „Pablo Stanley”, licensed under „Free for personal and commercial use” (https://avataaars.com/)</dc:rights></rdf:Description></rdf:RDF></metadata><mask id="viewboxMask"><rect width="280" height="280" rx="0" ry="0" x="0" y="0" fill="#fff" /></mask><g mask="url(#viewboxMask)"><g transform="translate(8)"><path d="M132 36a56 56 0 0 0-56 56v6.17A12 12 0 0 0 66 110v14a12 12 0 0 0 10.3 11.88 56.04 56.04 0 0 0 31.7 44.73v18.4h-4a72 72 0 0 0-72 72v9h200v-9a72 72 0 0 0-72-72h-4v-18.39a56.04 56.04 0 0 0 31.7-44.73A12 12 0 0 0 198 124v-14a12 12 0 0 0-10-11.83V92a56 56 0 0 0-56-56Z" fill="#ffdbb4"/><path d="M108 180.61v8a55.79 55.79 0 0 0 24 5.39c8.59 0 16.73-1.93 24-5.39v-8a55.79 55.79 0 0 1-24 5.39 55.79 55.79 0 0 1-24-5.39Z" fill="#000" fill-opacity=".1"/><g transform="translate(0 170)"><path d="M132 57.05c14.91 0 27-11.2 27-25 0-1.01-.06-2.01-.2-3h1.2a72 72 0 0 1 72 72V110H32v-8.95a72 72 0 0 1 72-72h1.2c-.14.99-.2 1.99-.2 3 0 13.8 12.09 25 27 25Z" fill="#E6E6E6"/><path d="M100.78 29.12 101 28c-2.96.05-6 1-6 1l-.42.66A72.01 72.01 0 0 0 32 101.06V110h74s-10.7-51.56-5.24-80.8l.02-.08ZM158 110s11-53 5-82c2.96.05 6 1 6 1l.42.66a72.01 72.01 0 0 1 62.58 71.4V110h-74Z" fill="#65c9ff"/><path d="M101 28c-6 29 5 82 5 82H90L76 74l6-9-6-6 19-30s3.04-.95 6-1ZM163 28c6 29-5 82-5 82h16l14-36-6-9 6-6-19-30s-3.04-.95-6-1Z" fill-rule="evenodd" clip-rule="evenodd" fill="#000" fill-opacity=".15"/><path d="M108 21.54c-6.77 4.6-11 11.12-11 18.35 0 7.4 4.43 14.05 11.48 18.67l5.94-4.68 4.58.33-1-3.15.08-.06c-6.1-3.15-10.08-8.3-10.08-14.12V21.54ZM156 36.88c0 5.82-3.98 10.97-10.08 14.12l.08.06-1 3.15 4.58-.33 5.94 4.68C162.57 53.94 167 47.29 167 39.89c0-7.23-4.23-13.75-11-18.35v15.34Z" fill="#F2F2F2"/><path d="m183.42 85.77.87-2.24 6.27-4.7a4 4 0 0 1 4.85.05l6.6 5.12-18.59 1.77Z" fill="#E6E6E6"/></g><g transform="translate(78 134)"><path fill-rule="evenodd" clip-rule="evenodd" d="M29 15.6C30.41 25.24 41.06 33 54 33c12.97 0 23.65-7.82 25-18.26.1-.4-.22-1.74-2.17-1.74H31.17c-1.79 0-2.3 1.24-2.17 2.6Z" fill="#000" fill-opacity=".7"/><path d="M70 13H39a5 5 0 0 0 5 5h21a5 5 0 0 0 5-5Z" fill="#fff"/><path d="M43 23.5a1.88 1.88 0 0 0 0 .13v8.87a11.5 11.5 0 1 0 23 0v-8.87a1.62 1.62 0 0 0 0-.13c0-1.93-2.91-3.5-6.5-3.5-2.01 0-3.8.5-5 1.26a9.45 9.45 0 0 0-5-1.26c-3.59 0-6.5 1.57-6.5 3.5Z" fill="#FF4F6D"/></g><g transform="translate(104 122)"><path fill-rule="evenodd" clip-rule="evenodd" d="M16 8c0 4.42 5.37 8 12 8s12-3.58 12-8" fill="#000" fill-opacity=".16"/></g><g transform="translate(76 90)"><path d="M44 20.73c0 4.26-6.27 7.72-14 7.72S16 25 16 20.73C16 16.46 22.27 13 30 13s14 3.46 14 7.73ZM96 20.73c0 4.26-6.27 7.72-14 7.72S68 25 68 20.73C68 16.46 74.27 13 82 13s14 3.46 14 7.73Z" fill="#fff"/><path d="M32.82 28.3a25.15 25.15 0 0 1-5.64 0 6 6 0 1 1 5.64 0ZM84.82 28.3a25.15 25.15 0 0 1-5.64 0 6 6 0 1 1 5.64 0Z" fill="#000" fill-opacity=".7"/></g><g transform="translate(76 82)"><g fill-rule="evenodd" clip-rule="evenodd" fill="#DADADA"><path d="M57 12.82ZM96.12 7.6c1.46.56 9.19 6.43 7.86 9.16a.8.8 0 0 1-1.29.22 10.63 10.63 0 0 0-1.7-1.19c-5.1-2.84-11.3-1.93-16.73-.91-6.12 1.14-12.11 3.48-18.39 2.67-2.04-.26-6.08-1.22-7.63-2.96-.47-.53-.06-1.38.64-1.43 1.44-.11 2.86-.86 4.33-1.28 3.65-1.03 7.4-1.56 11.11-2.29 6.62-1.3 15.17-4.53 21.8-2Z"/><path d="M58.76 12.76c-1.17.04-2.8 3.56-.56 3.68 2.23.11 1.73-3.72.56-3.68ZM55 12.8c0-.01 0-.01 0 0ZM15.88 7.56c-1.46.56-9.19 6.43-7.86 9.16.24.5.89.6 1.29.22.55-.52 1.58-1.11 1.71-1.18 5.1-2.84 11.3-1.93 16.73-.91 6.12 1.14 12.11 3.48 18.39 2.67 2.04-.26 6.08-1.22 7.63-2.96.47-.53.06-1.38-.64-1.43-1.44-.11-2.86-.86-4.33-1.28-3.65-1.03-7.4-1.56-11.11-2.29-6.62-1.3-15.17-4.53-21.8-2Z"/><path d="M54.97 11.79c1.17.04 2.77 4.5.53 4.67-2.24.18-1.7-4.71-.53-4.67Z"/></g></g><g transform="translate(-1)"><path fill-rule="evenodd" clip-rule="evenodd" d="M88.18 37.86c5.14-3.84 11.22-7.12 17.56-8.38 6.45-1.28 10.36-1.6 16.7-.07 1.64.39 2.2.78 3.63-.15 1.2-.79 9.66-9.5 35.42-4.66 26.03 4.88 33.77 44.08 43.42 45.57 3.49.53 7.79-.39 7.92-2.53 3.96 6.03 5 14 3.33 21.07-1.45 6.09-4.5 11.8-10 15.14-4.72 2.87-11.25 4.12-16.71 3.59a22.36 22.36 0 0 1-7.03-1.77c-2.76-1.2-4.96-3.4-7.67-4.54a53.9 53.9 0 0 0 9.18 6.42c1.64.9 3.3 1.53 5.11 2.02 1.24.34 3.76 1.48 4.96 1.18-7.81 1.4-15.16.18-22.32-3.16a51.67 51.67 0 0 1-9.2-5.48c-2.83-2.13-6.09-4.3-8.3-7.1.93 1.2-.7-.6-.92-.81a74.07 74.07 0 0 1-4.72-5.29c-1.99-2.48-3.84-5.08-5.5-7.8-1.68-2.76-8.36-13.87-10.38-16.5a195.3 195.3 0 0 0 6.41 16.93c-4.71-1.47-9.28-5.54-12.3-9.34a29.46 29.46 0 0 1-6.1-14.66c-3.83 10.41-12.79 18.63-22.03 24.3 2-3.74 5.05-6.9 7.05-10.69-9.2 9.33-24.57 13.9-28.6 27.58-1.03-4.76-4.35-8.58-5.34-13.43-1.1-5.4-1.9-11.11-1.73-16.62.4-12.24 8.64-23.72 18.16-30.82Z" fill="#a55728"/></g><g transform="translate(49 72)"></g><g transform="translate(62 42)"></g></g></g></svg>