<svg xmlns="http://www.w3.org/2000/svg" viewBox="0 0 280 280" fill="none" shape-rendering="auto"><metadata xmlns:rdf="http://www.w3.org/1999/02/22-rdf-syntax-ns#" xmlns:xsi="http://www.w3.org/2001/XMLSchema-instance" xmlns:dc="http://purl.org/dc/elements/1.1/" xmlns:dcterms="http://purl.org/dc/terms/"><rdf:RDF><rdf:Description><dc:title>Avataaars</dc:title><dc:creator>Pablo Stanley</dc:creator><dc:source xsi:type="dcterms:URI">https://avataaars.com/</dc:source><dcterms:license xsi:type="dcterms:URI">https://avataaars.com/</dcterms:license><dc:rights>Remix of „Avataaars” (https://avataaars.com/) by „Pablo Stanley”, licensed under „Free for personal and commercial use” (https://avataaars.com/)</dc:rights></rdf:Description></rdf:RDF></metadata><mask id="viewboxMask"><rect width="280" height="280" rx="0" ry="0" x="0" y="0" fill="#fff" /></mask><g mask="url(#viewboxMask)"><g transform="translate(8)"><path d="M132 36a56 56 0 0 0-56 56v6.17A12 12 0 0 0 66 110v14a12 12 0 0 0 10.3 11.88 56.04 56.04 0 0 0 31.7 44.73v18.4h-4a72 72 0 0 0-72 72v9h200v-9a72 72 0 0 0-72-72h-4v-18.39a56.04 56.04 0 0 0 31.7-44.73A12 12 0 0 0 198 124v-14a12 12 0 0 0-10-11.83V92a56 56 0 0 0-56-56Z" fill="#ae5d29"/><path d="M108 180.61v8a55.79 55.79 0 0 0 24 5.39c8.59 0 16.73-1.93 24-5.39v-8a55.79 55.79 0 0 1-24 5.39 55.79 55.79 0 0 1-24-5.39Z" fill="#000" fill-opacity=".1"/><g transform="translate(0 170)"><path d="M132.5 65.83c27.34 0 49.5-13.2 49.5-29.48 0-1.37-.16-2.7-.46-4.02A72.03 72.03 0 0 1 232 101.05V110H32v-8.95A72.03 72.03 0 0 1 83.53 32a18 18 0 0 0-.53 4.35c0 16.28 22.16 29.48 49.5 29.48Z" fill="#929598"/></g><g transform="translate(78 134)"><path fill-rule="evenodd" clip-rule="evenodd" d="M34 30.4C35.14 19.9 38.24 11 54 11c15.76 0 18.92 8.96 20 19.5.08.84-.83 1.5-1.96 1.5-6.69 0-9.37-1.5-18.05-1.5-8.7 0-13.24 1.5-17.9 1.5-1.15 0-2.2-.55-2.1-1.6Z" fill="#000" fill-opacity=".7"/><path d="M67.86 15.1c-.8.57-1.8.9-2.86.9H44c-1.3 0-2.49-.5-3.38-1.31C43.56 12.38 47.8 11 54 11c6.54 0 10.9 1.54 13.86 4.1Z" fill="#fff"/><path d="M42 25a6 6 0 0 0-6 6v7a6 6 0 0 0 12 0v-2h.08a6 6 0 0 1 11.84 0H60a6 6 0 0 0 12 0v-5a6 6 0 0 0-6-6H42Z" fill="#7BB24B"/><path d="M72 31a6 6 0 0 0-6-6H42a6 6 0 0 0-6 6v6a6 6 0 0 0 12 0v-2h.08a6 6 0 0 1 11.84 0H60a6 6 0 0 0 12 0v-4Z" fill="#88C553"/></g><g transform="translate(104 122)"><path fill-rule="evenodd" clip-rule="evenodd" d="M16 8c0 4.42 5.37 8 12 8s12-3.58 12-8" fill="#000" fill-opacity=".16"/></g><g transform="translate(76 90)"><path d="M16.16 27.55c1.85 3.8 6 6.45 10.84 6.45 4.81 0 8.96-2.63 10.82-6.4.55-1.13-.24-2.05-1.03-1.37a15.05 15.05 0 0 1-9.8 3.43c-3.73 0-7.12-1.24-9.55-3.23-.9-.73-1.82.01-1.28 1.12ZM74.16 27.55c1.85 3.8 6 6.45 10.84 6.45 4.81 0 8.96-2.63 10.82-6.4.55-1.13-.24-2.05-1.03-1.37a15.05 15.05 0 0 1-9.8 3.43c-3.74 0-7.13-1.24-9.56-3.23-.9-.73-1.82.01-1.28 1.12Z" fill-rule="evenodd" clip-rule="evenodd" fill="#000" fill-opacity=".6"/></g><g transform="translate(76 82)"><path d="M44.1 17.12ZM19.27 5.01a7.16 7.16 0 0 0-6.42 2.43c-.6.73-1.56 2.48-1.51 3.42.02.35.22.37 1.12.59 1.65.39 4.5-1.12 6.36-.98 2.58.2 5.04 1.4 7.28 2.68 3.84 2.2 8.35 6.84 13.1 6.6.35-.02 5.41-1.74 4.4-2.72-.31-.49-3.03-1.13-3.5-1.36-2.17-1.09-4.37-2.45-6.44-3.72C29.14 9.18 24.72 5.6 19.28 5ZM68.03 17.12ZM92.91 5.01c2.36-.27 4.85.5 6.42 2.43.6.73 1.56 2.48 1.51 3.42-.02.35-.22.37-1.12.59-1.65.39-4.5-1.12-6.36-.98-2.58.2-5.04 1.4-7.28 2.68-3.84 2.2-8.35 6.84-13.1 6.6-.35-.02-5.41-1.74-4.4-2.72.31-.49 3.03-1.13 3.5-1.36 2.17-1.09 4.36-2.45 6.44-3.72C83.05 9.18 87.46 5.6 92.91 5Z" fill-rule="evenodd" clip-rule="evenodd" fill="#000" fill-opacity=".6"/></g><g transform="translate(-1)"><path fill-rule="evenodd" clip-rule="evenodd" d="M66 77.34c-.66 3.79-1 7.68-1 11.66v48c0 .97.02 1.94.06 2.9L65 142c.14 3.68-1.86 11.8-4.34 21.9-3.88 15.77-8.94 36.4-8.94 52.55 0 13.01 1.98 22.84 3.89 32.3 1.97 9.78 3.86 19.16 3.39 31.25h47s-.95-13.2-2.47-26.36c10.05 10.2 22.82 16.84 39.05 16.84 70.55 0 77.62-53.83 77.62-65.24 0-6.04-4.32-10.88-8.39-15.44-3.6-4.05-7.02-7.87-7-12.1 0-4.35 1.02-7.39 2.07-10.52 1.12-3.33 2.27-6.75 2.27-11.96 0-5.82-1.43-7.5-2.9-9.25a10.7 10.7 0 0 1-2.8-5.62c-.88-4.54-1.86-14.32-2.45-20.77V89A68 68 0 0 0 66.04 77.08L66 77v.34ZM133 53c-30.1 0-55 24.4-55 54.5v23c0 30.1 24.9 54.5 55 54.5s55-24.4 55-54.5v-23c0-30.1-24.9-54.5-55-54.5Z" fill="#ff488e"/><path d="M193.93 104.96A61.4 61.4 0 0 0 195 93.5c0-33.97-27.76-61.5-62-61.5-34.24 0-62 27.53-62 61.5 0 3.92.37 7.75 1.07 11.46a61 61 0 0 1 121.86 0Z" fill="#fff" fill-opacity=".5"/><path d="M78.07 104.69c-.05.93-.07 1.87-.07 2.81v23c0 30.1 24.9 54.5 55 54.5s55-24.4 55-54.5v-23c0-.94-.02-1.88-.07-2.81.7 3.5 1.07 7.1 1.07 10.81v23a54.5 54.5 0 0 1-54.5 54.5h-3A54.5 54.5 0 0 1 77 138.5v-23c0-3.7.37-7.32 1.07-10.81ZM187.05 194.14c-4.39 6.9-17.9 13.66-34.65 16.62-16.74 2.95-31.75 1.22-38.23-3.76.02.26.05.52.1.78 1.7 9.69 19.42 14.67 39.57 11.12 20.15-3.56 35.1-14.3 33.38-23.99-.04-.26-.1-.51-.17-.77ZM198.66 209.49c-2.64 9.6-14.87 20.2-31.56 26.28-16.68 6.07-32.87 5.8-41.06.15.1.34.2.67.32 1 4.53 12.44 24.47 16.6 44.55 9.3 20.07-7.31 32.67-23.32 28.15-35.75-.12-.34-.26-.66-.4-.98Z" opacity=".9" fill="#000" fill-opacity=".16"/></g><g transform="translate(49 72)"></g><g transform="translate(62 42)"></g></g></g></svg>