<svg width="182" height="29" viewBox="0 0 34 29" fill="none" xmlns="http://www.w3.org/2000/svg" style="color: #3964fe;"><g clip-path="url(#clip0_10227_148760)"><path d="M33.7472 4.32057C33.3878 4.14492 33.2334 4.48011 33.0234 4.64989C32.9516 4.70478 32.8909 4.7765 32.8302 4.84237C32.3054 5.40296 31.6921 5.77107 30.8915 5.72716C29.7206 5.6613 28.7209 6.02941 27.8368 6.92518C27.6487 5.82084 27.0245 5.16145 26.0745 4.73845C25.5776 4.51889 25.0748 4.29861 24.7265 3.82072C24.4835 3.48041 24.4169 3.10132 24.2954 2.72735C24.2179 2.50194 24.141 2.27141 23.8812 2.23263C23.5995 2.18872 23.489 2.4251 23.3784 2.6227C22.9364 3.43065 22.7652 4.32057 22.782 5.22219C22.8208 7.25012 23.677 8.86529 25.3786 10.0143C25.5718 10.146 25.6215 10.2777 25.5608 10.4702C25.4444 10.8661 25.3068 11.2504 25.1854 11.6463C25.1078 11.8988 24.9921 11.9544 24.7214 11.8439C23.7875 11.4538 22.9811 10.8764 22.2682 10.1789C21.0585 9.00873 19.9644 7.71704 18.6003 6.70563C18.2797 6.46925 17.9592 6.2497 17.6276 6.04039C16.2357 4.68868 17.8099 3.57848 18.1743 3.44675C18.5556 3.30916 18.3068 2.83639 17.0751 2.84225C15.8434 2.84737 14.7164 3.26013 13.2798 3.80974C13.0697 3.89244 12.8487 3.95245 12.6226 4.00222C11.3192 3.75485 9.96528 3.69997 8.55136 3.85951C5.88893 4.1559 3.7622 5.41467 2.19899 7.56335C0.321085 10.146 -0.120946 13.0807 0.419884 16.1412C0.988524 19.3672 2.63516 22.0377 5.16514 24.1256C7.78878 26.2904 10.8106 27.3516 14.2582 27.1481C16.352 27.0274 18.683 26.7471 21.3125 24.5215C21.9755 24.8516 22.6715 24.9833 23.8256 25.0821C24.7148 25.1648 25.571 25.0382 26.2341 24.9006C27.2726 24.6811 27.2008 23.7195 26.8254 23.5431C23.7817 22.1255 24.4499 22.7022 23.8424 22.2353C25.3888 20.4057 27.7512 17.1534 28.4801 12.725C28.5518 12.2361 28.6433 11.5475 28.6323 11.1516C28.6265 10.9101 28.6821 10.8164 28.958 10.7886C29.7206 10.7007 30.4605 10.4922 31.1403 10.1182C33.1126 9.04094 33.9082 7.27135 34.0955 5.15047C34.1233 4.82627 34.0897 4.49109 33.7472 4.32057ZM16.5613 23.4113C13.6113 21.0921 12.1806 20.3288 11.59 20.3618C11.0374 20.3947 11.137 21.027 11.2584 21.439C11.3858 21.8459 11.5512 22.1262 11.7832 22.4834C11.9434 22.7198 12.0539 23.071 11.6229 23.3352C10.673 23.9229 9.0212 23.1376 8.94363 23.0989C7.02108 21.9667 5.41396 20.4723 4.28107 18.4282C3.18697 16.4611 2.55173 14.3504 2.44708 12.0978C2.41927 11.5541 2.57954 11.3616 3.12111 11.2628C3.83392 11.1311 4.56869 11.1033 5.28077 11.2079C8.29156 11.6477 10.8545 12.9936 13.0031 15.1262C14.2297 16.3403 15.1577 17.7915 16.1135 19.2091C17.13 20.7145 18.2234 22.1489 19.6161 23.325C20.1078 23.737 20.5001 24.0502 20.8755 24.2815C19.7434 24.4081 17.8538 24.4352 16.5613 23.4128V23.4113ZM17.9753 14.3168C17.9753 14.0753 18.1685 13.8828 18.4114 13.8828C18.4663 13.8828 18.5161 13.8938 18.5607 13.9099C18.6215 13.9318 18.6771 13.9648 18.721 14.0145C18.7986 14.0914 18.8425 14.2011 18.8425 14.3168C18.8425 14.5583 18.6493 14.7508 18.4063 14.7508C18.1633 14.7508 17.9753 14.5583 17.9753 14.3168ZM22.367 16.5694C22.0853 16.685 21.8035 16.7838 21.5327 16.7948C21.1127 16.8167 20.6545 16.6462 20.4057 16.4376C20.0193 16.1134 19.7427 15.9319 19.627 15.3662C19.5773 15.1247 19.6051 14.7508 19.649 14.5363C19.7485 14.0745 19.638 13.7781 19.3123 13.5088C19.0474 13.2893 18.71 13.2285 18.3397 13.2285C18.2014 13.2285 18.0748 13.1678 17.9804 13.1187C17.826 13.0419 17.6986 12.8494 17.8201 12.613C17.8589 12.5362 18.047 12.3496 18.0909 12.3167C18.5937 12.0305 19.1733 12.1242 19.7097 12.3386C20.2066 12.5421 20.5828 12.9153 21.1236 13.443C21.6762 14.0804 21.7757 14.256 22.0904 14.7347C22.3392 15.1086 22.5654 15.4928 22.7205 15.9327C22.8142 16.2071 22.6927 16.4318 22.367 16.5694Z" fill="currentColor"></path></g><defs><clipPath id="clip0_10227_148760"><rect width="33.8978" height="24.9455" fill="white" transform="translate(0.206299 2.22727)"></rect></clipPath></defs></svg>
